# xmcd CD database file
#
# Track frame offsets:
#	150
#	21667
#	38957
#	56573
#	78920
#	103431
#	116539
#	144038
#	166601
#	187160
#	208370
#	226347
#	240962
#	264700
#	285755
#
# Disc length: 4041 seconds
#
# Revision: 0
# Processed by: cddbd v1.5.2PL0 Copyright (c) Steve Scherf et al.
# Submitted via: CDex 1.50beta9
#
DISCID=ce0fc70f
DTITLE=Various Artist - Wave Music Vol. 10 [CD 1)
DYEAR=2006
DGENRE=Jazz
TTITLE0=Can 7 - What 2 Do
TTITLE1=Ernie Halter - Save Some
TTITLE2=Ken Ross and Yan - Not Over You
TTITLE3=Nils - Pacific Coast Highway
TTITLE4=Moca - Kleine Träumerei
TTITLE5=Baz - Never Ending Story
TTITLE6=Chris Botti - No Ordinary Love
TTITLE7=Paul Brown - The City
TTITLE8=Kem - Find Your Way
TTITLE9=Gregg Karukas - First Flight Home
TTITLE10=Nils Landgren and Joe Sampler - One Day I Fly Away
TTITLE11=Hans Peter Salentin - Landscape
TTITLE12=Simply Red - Fairground
TTITLE13=Soulounge - Somebody
TTITLE14=Raul Midôn - If You Gonna Leave
EXTD=YEAR: 2006
EXTT0=
EXTT1=
EXTT2=
EXTT3=
EXTT4=
EXTT5=
EXTT6=
EXTT7=
EXTT8=
EXTT9=
EXTT10=
EXTT11=
EXTT12=
EXTT13=
EXTT14=
PLAYORDER=
